<mxfile host="app.diagrams.net" agent="Mozilla/5.0 (X11; Ubuntu; Linux x86_64; rv:131.0) Gecko/20100101 Firefox/131.0" version="24.9.0">
  <diagram name="Pagina-1" id="x_ROEg8OsRcb1xZZzUgF">
    <mxGraphModel dx="819" dy="451" grid="1" gridSize="10" guides="1" tooltips="1" connect="1" arrows="1" fold="1" page="1" pageScale="1" pageWidth="827" pageHeight="1169" math="0" shadow="0">
      <root>
        <mxCell id="0" />
        <mxCell id="1" parent="0" />
        <mxCell id="rFOGEtQyIBQHR2Y3sHzz-8" value="&lt;div&gt;Non registrato&lt;/div&gt;" style="shape=umlActor;verticalLabelPosition=bottom;verticalAlign=top;html=1;outlineConnect=0;" vertex="1" parent="1">
          <mxGeometry x="60" y="90" width="30" height="60" as="geometry" />
        </mxCell>
        <mxCell id="rFOGEtQyIBQHR2Y3sHzz-42" style="edgeStyle=orthogonalEdgeStyle;rounded=0;orthogonalLoop=1;jettySize=auto;html=1;entryX=0;entryY=0.5;entryDx=0;entryDy=0;" edge="1" parent="1" source="rFOGEtQyIBQHR2Y3sHzz-9" target="rFOGEtQyIBQHR2Y3sHzz-35">
          <mxGeometry relative="1" as="geometry" />
        </mxCell>
        <mxCell id="rFOGEtQyIBQHR2Y3sHzz-9" value="Registrato" style="shape=umlActor;verticalLabelPosition=bottom;verticalAlign=top;html=1;outlineConnect=0;" vertex="1" parent="1">
          <mxGeometry x="405" y="240" width="30" height="60" as="geometry" />
        </mxCell>
        <mxCell id="rFOGEtQyIBQHR2Y3sHzz-24" style="edgeStyle=orthogonalEdgeStyle;rounded=0;orthogonalLoop=1;jettySize=auto;html=1;entryX=0;entryY=0.5;entryDx=0;entryDy=0;" edge="1" parent="1" source="rFOGEtQyIBQHR2Y3sHzz-13" target="rFOGEtQyIBQHR2Y3sHzz-23">
          <mxGeometry relative="1" as="geometry" />
        </mxCell>
        <mxCell id="rFOGEtQyIBQHR2Y3sHzz-13" value="HomePage" style="rounded=0;whiteSpace=wrap;html=1;" vertex="1" parent="1">
          <mxGeometry x="210" y="90" width="120" height="60" as="geometry" />
        </mxCell>
        <mxCell id="rFOGEtQyIBQHR2Y3sHzz-34" style="edgeStyle=orthogonalEdgeStyle;rounded=0;orthogonalLoop=1;jettySize=auto;html=1;entryX=0;entryY=0.5;entryDx=0;entryDy=0;" edge="1" parent="1" source="rFOGEtQyIBQHR2Y3sHzz-14" target="rFOGEtQyIBQHR2Y3sHzz-15">
          <mxGeometry relative="1" as="geometry" />
        </mxCell>
        <mxCell id="rFOGEtQyIBQHR2Y3sHzz-14" value="Ricerca" style="rounded=0;whiteSpace=wrap;html=1;" vertex="1" parent="1">
          <mxGeometry x="540" y="90" width="120" height="60" as="geometry" />
        </mxCell>
        <mxCell id="rFOGEtQyIBQHR2Y3sHzz-15" value="Video" style="rounded=0;whiteSpace=wrap;html=1;" vertex="1" parent="1">
          <mxGeometry x="790" y="90" width="120" height="60" as="geometry" />
        </mxCell>
        <mxCell id="rFOGEtQyIBQHR2Y3sHzz-20" style="edgeStyle=orthogonalEdgeStyle;rounded=0;orthogonalLoop=1;jettySize=auto;html=1;entryX=-0.008;entryY=0.4;entryDx=0;entryDy=0;entryPerimeter=0;" edge="1" parent="1" source="rFOGEtQyIBQHR2Y3sHzz-8" target="rFOGEtQyIBQHR2Y3sHzz-13">
          <mxGeometry relative="1" as="geometry">
            <Array as="points">
              <mxPoint x="189" y="120" />
            </Array>
          </mxGeometry>
        </mxCell>
        <mxCell id="rFOGEtQyIBQHR2Y3sHzz-39" style="edgeStyle=orthogonalEdgeStyle;rounded=0;orthogonalLoop=1;jettySize=auto;html=1;entryX=0.6;entryY=1.033;entryDx=0;entryDy=0;entryPerimeter=0;" edge="1" parent="1" source="rFOGEtQyIBQHR2Y3sHzz-22" target="rFOGEtQyIBQHR2Y3sHzz-15">
          <mxGeometry relative="1" as="geometry">
            <mxPoint x="860" y="160" as="targetPoint" />
          </mxGeometry>
        </mxCell>
        <mxCell id="rFOGEtQyIBQHR2Y3sHzz-22" value="Edito" style="rounded=0;whiteSpace=wrap;html=1;" vertex="1" parent="1">
          <mxGeometry x="800" y="240" width="120" height="60" as="geometry" />
        </mxCell>
        <mxCell id="rFOGEtQyIBQHR2Y3sHzz-27" style="edgeStyle=orthogonalEdgeStyle;rounded=0;orthogonalLoop=1;jettySize=auto;html=1;" edge="1" parent="1" source="rFOGEtQyIBQHR2Y3sHzz-23" target="rFOGEtQyIBQHR2Y3sHzz-9">
          <mxGeometry relative="1" as="geometry" />
        </mxCell>
        <mxCell id="rFOGEtQyIBQHR2Y3sHzz-28" value="Si" style="edgeLabel;html=1;align=center;verticalAlign=middle;resizable=0;points=[];" vertex="1" connectable="0" parent="rFOGEtQyIBQHR2Y3sHzz-27">
          <mxGeometry x="-0.2" relative="1" as="geometry">
            <mxPoint as="offset" />
          </mxGeometry>
        </mxCell>
        <mxCell id="rFOGEtQyIBQHR2Y3sHzz-29" style="edgeStyle=orthogonalEdgeStyle;rounded=0;orthogonalLoop=1;jettySize=auto;html=1;entryX=0;entryY=0.5;entryDx=0;entryDy=0;" edge="1" parent="1" source="rFOGEtQyIBQHR2Y3sHzz-23" target="rFOGEtQyIBQHR2Y3sHzz-14">
          <mxGeometry relative="1" as="geometry" />
        </mxCell>
        <mxCell id="rFOGEtQyIBQHR2Y3sHzz-30" value="no" style="edgeLabel;html=1;align=center;verticalAlign=middle;resizable=0;points=[];" vertex="1" connectable="0" parent="rFOGEtQyIBQHR2Y3sHzz-29">
          <mxGeometry x="-0.225" y="1" relative="1" as="geometry">
            <mxPoint as="offset" />
          </mxGeometry>
        </mxCell>
        <mxCell id="rFOGEtQyIBQHR2Y3sHzz-23" value="Sei registrato?" style="rhombus;whiteSpace=wrap;html=1;" vertex="1" parent="1">
          <mxGeometry x="380" y="80" width="80" height="80" as="geometry" />
        </mxCell>
        <mxCell id="rFOGEtQyIBQHR2Y3sHzz-33" value="Logout" style="rounded=0;whiteSpace=wrap;html=1;" vertex="1" parent="1">
          <mxGeometry x="550" y="410" width="120" height="60" as="geometry" />
        </mxCell>
        <mxCell id="rFOGEtQyIBQHR2Y3sHzz-36" style="edgeStyle=orthogonalEdgeStyle;rounded=0;orthogonalLoop=1;jettySize=auto;html=1;entryX=0.5;entryY=1;entryDx=0;entryDy=0;" edge="1" parent="1" source="rFOGEtQyIBQHR2Y3sHzz-35" target="rFOGEtQyIBQHR2Y3sHzz-14">
          <mxGeometry relative="1" as="geometry" />
        </mxCell>
        <mxCell id="rFOGEtQyIBQHR2Y3sHzz-37" value="Ricerca" style="edgeLabel;html=1;align=center;verticalAlign=middle;resizable=0;points=[];" vertex="1" connectable="0" parent="rFOGEtQyIBQHR2Y3sHzz-36">
          <mxGeometry x="-0.025" y="-3" relative="1" as="geometry">
            <mxPoint as="offset" />
          </mxGeometry>
        </mxCell>
        <mxCell id="rFOGEtQyIBQHR2Y3sHzz-38" style="edgeStyle=orthogonalEdgeStyle;rounded=0;orthogonalLoop=1;jettySize=auto;html=1;entryX=0;entryY=0.5;entryDx=0;entryDy=0;" edge="1" parent="1" source="rFOGEtQyIBQHR2Y3sHzz-35" target="rFOGEtQyIBQHR2Y3sHzz-22">
          <mxGeometry relative="1" as="geometry" />
        </mxCell>
        <mxCell id="rFOGEtQyIBQHR2Y3sHzz-41" style="edgeStyle=orthogonalEdgeStyle;rounded=0;orthogonalLoop=1;jettySize=auto;html=1;" edge="1" parent="1" source="rFOGEtQyIBQHR2Y3sHzz-35" target="rFOGEtQyIBQHR2Y3sHzz-33">
          <mxGeometry relative="1" as="geometry" />
        </mxCell>
        <mxCell id="rFOGEtQyIBQHR2Y3sHzz-35" value="Cosa vuoi fare?" style="rhombus;whiteSpace=wrap;html=1;" vertex="1" parent="1">
          <mxGeometry x="560" y="230" width="80" height="80" as="geometry" />
        </mxCell>
        <mxCell id="rFOGEtQyIBQHR2Y3sHzz-43" value="&lt;div&gt;&lt;br&gt;&lt;/div&gt;" style="text;html=1;align=center;verticalAlign=middle;resizable=0;points=[];autosize=1;strokeColor=none;fillColor=none;" vertex="1" parent="1">
          <mxGeometry x="280" y="618" width="20" height="30" as="geometry" />
        </mxCell>
        <mxCell id="rFOGEtQyIBQHR2Y3sHzz-45" value="&lt;h1 style=&quot;margin-top: 0px;&quot;&gt;Non registrato&lt;/h1&gt;&lt;div&gt;-L&#39;utente non registrato puo&#39; registrarsi.&lt;/div&gt;&lt;div&gt;-Puo&#39; visitare la pagina HomePage&lt;/div&gt;&lt;div&gt;-Puo&#39; effettuare ricerche&lt;/div&gt;&lt;div&gt;-Puo&#39; guardare video&lt;br&gt;&lt;/div&gt;" style="text;html=1;whiteSpace=wrap;overflow=hidden;rounded=0;" vertex="1" parent="1">
          <mxGeometry y="498" width="240" height="122" as="geometry" />
        </mxCell>
        <mxCell id="rFOGEtQyIBQHR2Y3sHzz-46" value="&lt;h1 style=&quot;margin-top: 0px;&quot;&gt;Registrato&lt;br&gt;&lt;/h1&gt;&lt;p&gt;-Puo&#39; effettuare ricerche&lt;/p&gt;&lt;p&gt;-Editare i propri video&lt;/p&gt;&lt;p&gt;-effettuare il Logout&lt;br&gt;&lt;/p&gt;" style="text;html=1;whiteSpace=wrap;overflow=hidden;rounded=0;" vertex="1" parent="1">
          <mxGeometry x="240" y="499" width="180" height="120" as="geometry" />
        </mxCell>
        <mxCell id="rFOGEtQyIBQHR2Y3sHzz-47" value="&lt;h1 style=&quot;margin-top: 0px;&quot;&gt;HomePage&lt;br&gt;&lt;/h1&gt;&lt;p&gt;Sono presenti i seguenti elementi:&lt;/p&gt;&lt;p&gt;-Login e Registrazione:&lt;/p&gt;&lt;p&gt;&lt;span style=&quot;white-space: pre;&quot;&gt;&#x9;&lt;/span&gt;Nel caso di Registrazione servono i seguenti dati:&lt;/p&gt;&lt;p&gt;&lt;span style=&quot;white-space: pre;&quot;&gt;&#x9;&lt;/span&gt;&lt;span style=&quot;white-space: pre;&quot;&gt;&#x9;&lt;/span&gt;-Nome (Non visibile)&lt;/p&gt;&lt;p&gt;&lt;span style=&quot;white-space: pre;&quot;&gt;&#x9;&lt;/span&gt;&lt;span style=&quot;white-space: pre;&quot;&gt;&#x9;&lt;/span&gt;-Cognome ( Non visibile)&lt;/p&gt;&lt;p&gt;&lt;span style=&quot;white-space: pre;&quot;&gt;&#x9;&lt;/span&gt;&lt;span style=&quot;white-space: pre;&quot;&gt;&#x9;&lt;/span&gt;-Username (Visibile)&lt;/p&gt;&lt;p&gt;&lt;span style=&quot;white-space: pre;&quot;&gt;&#x9;&lt;/span&gt;&lt;span style=&quot;white-space: pre;&quot;&gt;&#x9;&lt;/span&gt;-Password(Non visibile)&lt;br&gt;&lt;/p&gt;&lt;p&gt;-Ultimi video caricati dagli utenti&lt;/p&gt;&lt;p&gt;-Barra di ricerca&lt;br&gt;&lt;/p&gt;" style="text;html=1;whiteSpace=wrap;overflow=hidden;rounded=0;" vertex="1" parent="1">
          <mxGeometry x="435" y="500" width="325" height="280" as="geometry" />
        </mxCell>
        <mxCell id="rFOGEtQyIBQHR2Y3sHzz-48" value="&lt;h1 style=&quot;margin-top: 0px;&quot;&gt;Ricerca&lt;br&gt;&lt;/h1&gt;&lt;p&gt;-Ricerca per nome o cognome dell&#39;attore&lt;/p&gt;&lt;p&gt;-Ricerca per genere&lt;/p&gt;&lt;p&gt;-Ricerca per nome del film&lt;br&gt;&lt;/p&gt;" style="text;html=1;whiteSpace=wrap;overflow=hidden;rounded=0;" vertex="1" parent="1">
          <mxGeometry x="840" y="499" width="220" height="131" as="geometry" />
        </mxCell>
        <mxCell id="rFOGEtQyIBQHR2Y3sHzz-49" value="&lt;h1 style=&quot;margin-top: 0px;&quot;&gt;Video&lt;br&gt;&lt;/h1&gt;&lt;p&gt;Nel caso di utente non registrato:&lt;/p&gt;&lt;p&gt;&lt;span style=&quot;white-space: pre;&quot;&gt;&#x9;&lt;/span&gt;-Vedere un film.&lt;/p&gt;&lt;p&gt;Nel caso di utente Registrato:&lt;/p&gt;&lt;p&gt;&lt;span style=&quot;white-space: pre;&quot;&gt;&#x9;&lt;/span&gt;-Puo&#39; commentare tutti i video&lt;/p&gt;&lt;p&gt;&lt;span style=&quot;white-space: pre;&quot;&gt;&#x9;&lt;/span&gt;&lt;/p&gt;" style="text;html=1;whiteSpace=wrap;overflow=hidden;rounded=0;" vertex="1" parent="1">
          <mxGeometry y="640" width="350" height="162" as="geometry" />
        </mxCell>
        <mxCell id="rFOGEtQyIBQHR2Y3sHzz-51" value="&lt;h1 style=&quot;margin-top: 0px;&quot;&gt;Edito&lt;br&gt;&lt;/h1&gt;&lt;p&gt;&lt;span style=&quot;white-space: pre;&quot;&gt;Solo utente registrato:&lt;br&gt;&lt;/span&gt;&lt;/p&gt;&lt;p&gt;&lt;span style=&quot;white-space: pre;&quot;&gt;&#x9;&lt;/span&gt;-Puo&#39; caricare dei video:&lt;/p&gt;&lt;p&gt;&lt;span style=&quot;white-space: pre;&quot;&gt;&#x9;&lt;/span&gt;&lt;span style=&quot;white-space: pre;&quot;&gt;&#x9;&lt;/span&gt;-Puo&#39; aggiungere dettagli:&lt;/p&gt;&lt;p&gt;&lt;span style=&quot;white-space: pre;&quot;&gt;&#x9;&lt;/span&gt;&lt;span style=&quot;white-space: pre;&quot;&gt;&#x9;&lt;/span&gt;&lt;span style=&quot;white-space: pre;&quot;&gt;&#x9;&lt;/span&gt;-Nome del film(obbligatorio)&lt;/p&gt;&lt;p&gt;&lt;span style=&quot;white-space: pre;&quot;&gt;&#x9;&lt;/span&gt;&lt;span style=&quot;white-space: pre;&quot;&gt;&#x9;&lt;/span&gt;&lt;span style=&quot;white-space: pre;&quot;&gt;&#x9;&lt;/span&gt;-Descrizione del film&lt;/p&gt;&lt;p&gt;&lt;span style=&quot;white-space: pre;&quot;&gt;&#x9;&lt;/span&gt;&lt;span style=&quot;white-space: pre;&quot;&gt;&#x9;&lt;/span&gt;&lt;span style=&quot;white-space: pre;&quot;&gt;&#x9;&lt;/span&gt;-Genere del film ( obbligatorio)&lt;/p&gt;&lt;span style=&quot;white-space: pre;&quot;&gt;&#x9;&lt;/span&gt;-Puo&#39; eliminare i suoi video&lt;p&gt;&lt;/p&gt;" style="text;html=1;whiteSpace=wrap;overflow=hidden;rounded=0;" vertex="1" parent="1">
          <mxGeometry y="810" width="400" height="270" as="geometry" />
        </mxCell>
        <mxCell id="rFOGEtQyIBQHR2Y3sHzz-52" value="&lt;h1 style=&quot;margin-top: 0px;&quot;&gt;Logout&lt;br&gt;&lt;/h1&gt;&lt;p&gt;Solo utente registrato:&lt;/p&gt;&lt;p&gt;-Puo&#39; effettuare il logout&lt;br&gt;&lt;/p&gt;" style="text;html=1;whiteSpace=wrap;overflow=hidden;rounded=0;" vertex="1" parent="1">
          <mxGeometry x="324" y="900" width="180" height="120" as="geometry" />
        </mxCell>
        <mxCell id="rFOGEtQyIBQHR2Y3sHzz-53" value="&lt;h1 style=&quot;margin-top: 0px;&quot;&gt;Casi specifici&lt;br&gt;&lt;/h1&gt;&lt;p&gt;-Un utente registrato nel caso salva la pagina nei preferiti e cancella i cookie esegue un logout&lt;br&gt;&lt;/p&gt;&lt;p&gt;-&lt;br&gt;&lt;/p&gt;" style="text;html=1;whiteSpace=wrap;overflow=hidden;rounded=0;" vertex="1" parent="1">
          <mxGeometry x="540" y="860" width="243" height="145" as="geometry" />
        </mxCell>
        <mxCell id="rFOGEtQyIBQHR2Y3sHzz-55" value="Utente" style="swimlane;fontStyle=0;childLayout=stackLayout;horizontal=1;startSize=30;horizontalStack=0;resizeParent=1;resizeParentMax=0;resizeLast=0;collapsible=1;marginBottom=0;whiteSpace=wrap;html=1;" vertex="1" parent="1">
          <mxGeometry x="40" y="1200" width="140" height="240" as="geometry">
            <mxRectangle x="40" y="1200" width="80" height="30" as="alternateBounds" />
          </mxGeometry>
        </mxCell>
        <mxCell id="rFOGEtQyIBQHR2Y3sHzz-66" value="id : serial {id1}" style="text;strokeColor=none;fillColor=none;align=left;verticalAlign=middle;spacingLeft=4;spacingRight=4;overflow=hidden;points=[[0,0.5],[1,0.5]];portConstraint=eastwest;rotatable=0;whiteSpace=wrap;html=1;" vertex="1" parent="rFOGEtQyIBQHR2Y3sHzz-55">
          <mxGeometry y="30" width="140" height="30" as="geometry" />
        </mxCell>
        <mxCell id="rFOGEtQyIBQHR2Y3sHzz-56" value="nome:Stringa not&amp;nbsp; null" style="text;strokeColor=none;fillColor=none;align=left;verticalAlign=middle;spacingLeft=4;spacingRight=4;overflow=hidden;points=[[0,0.5],[1,0.5]];portConstraint=eastwest;rotatable=0;whiteSpace=wrap;html=1;" vertex="1" parent="rFOGEtQyIBQHR2Y3sHzz-55">
          <mxGeometry y="60" width="140" height="30" as="geometry" />
        </mxCell>
        <mxCell id="rFOGEtQyIBQHR2Y3sHzz-57" value="cognome:Stringa not null" style="text;strokeColor=none;fillColor=none;align=left;verticalAlign=middle;spacingLeft=4;spacingRight=4;overflow=hidden;points=[[0,0.5],[1,0.5]];portConstraint=eastwest;rotatable=0;whiteSpace=wrap;html=1;" vertex="1" parent="rFOGEtQyIBQHR2Y3sHzz-55">
          <mxGeometry y="90" width="140" height="30" as="geometry" />
        </mxCell>
        <mxCell id="rFOGEtQyIBQHR2Y3sHzz-59" value="&lt;div&gt;username : Stringa not null&lt;br&gt;&lt;/div&gt;{id2}" style="text;strokeColor=none;fillColor=none;align=left;verticalAlign=middle;spacingLeft=4;spacingRight=4;overflow=hidden;points=[[0,0.5],[1,0.5]];portConstraint=eastwest;rotatable=0;whiteSpace=wrap;html=1;" vertex="1" parent="rFOGEtQyIBQHR2Y3sHzz-55">
          <mxGeometry y="120" width="140" height="30" as="geometry" />
        </mxCell>
        <mxCell id="rFOGEtQyIBQHR2Y3sHzz-60" value="password:Stringa not&amp;nbsp; null" style="text;strokeColor=none;fillColor=none;align=left;verticalAlign=middle;spacingLeft=4;spacingRight=4;overflow=hidden;points=[[0,0.5],[1,0.5]];portConstraint=eastwest;rotatable=0;whiteSpace=wrap;html=1;" vertex="1" parent="rFOGEtQyIBQHR2Y3sHzz-55">
          <mxGeometry y="150" width="140" height="30" as="geometry" />
        </mxCell>
        <mxCell id="rFOGEtQyIBQHR2Y3sHzz-98" value="lastlogin:datatime" style="text;strokeColor=none;fillColor=none;align=left;verticalAlign=middle;spacingLeft=4;spacingRight=4;overflow=hidden;points=[[0,0.5],[1,0.5]];portConstraint=eastwest;rotatable=0;whiteSpace=wrap;html=1;" vertex="1" parent="rFOGEtQyIBQHR2Y3sHzz-55">
          <mxGeometry y="180" width="140" height="30" as="geometry" />
        </mxCell>
        <mxCell id="rFOGEtQyIBQHR2Y3sHzz-99" value="lastlogout:datatime" style="text;strokeColor=none;fillColor=none;align=left;verticalAlign=middle;spacingLeft=4;spacingRight=4;overflow=hidden;points=[[0,0.5],[1,0.5]];portConstraint=eastwest;rotatable=0;whiteSpace=wrap;html=1;" vertex="1" parent="rFOGEtQyIBQHR2Y3sHzz-55">
          <mxGeometry y="210" width="140" height="30" as="geometry" />
        </mxCell>
        <mxCell id="rFOGEtQyIBQHR2Y3sHzz-61" value="Film" style="swimlane;fontStyle=0;childLayout=stackLayout;horizontal=1;startSize=30;horizontalStack=0;resizeParent=1;resizeParentMax=0;resizeLast=0;collapsible=1;marginBottom=0;whiteSpace=wrap;html=1;" vertex="1" parent="1">
          <mxGeometry x="300" y="1200" width="140" height="150" as="geometry" />
        </mxCell>
        <mxCell id="rFOGEtQyIBQHR2Y3sHzz-62" value="id:iserial {id1}" style="text;strokeColor=none;fillColor=none;align=left;verticalAlign=middle;spacingLeft=4;spacingRight=4;overflow=hidden;points=[[0,0.5],[1,0.5]];portConstraint=eastwest;rotatable=0;whiteSpace=wrap;html=1;" vertex="1" parent="rFOGEtQyIBQHR2Y3sHzz-61">
          <mxGeometry y="30" width="140" height="30" as="geometry" />
        </mxCell>
        <mxCell id="rFOGEtQyIBQHR2Y3sHzz-63" value="titolo:Stringa{id2}" style="text;strokeColor=none;fillColor=none;align=left;verticalAlign=middle;spacingLeft=4;spacingRight=4;overflow=hidden;points=[[0,0.5],[1,0.5]];portConstraint=eastwest;rotatable=0;whiteSpace=wrap;html=1;" vertex="1" parent="rFOGEtQyIBQHR2Y3sHzz-61">
          <mxGeometry y="60" width="140" height="30" as="geometry" />
        </mxCell>
        <mxCell id="rFOGEtQyIBQHR2Y3sHzz-64" value="descrizione:Txt" style="text;strokeColor=none;fillColor=none;align=left;verticalAlign=middle;spacingLeft=4;spacingRight=4;overflow=hidden;points=[[0,0.5],[1,0.5]];portConstraint=eastwest;rotatable=0;whiteSpace=wrap;html=1;" vertex="1" parent="rFOGEtQyIBQHR2Y3sHzz-61">
          <mxGeometry y="90" width="140" height="30" as="geometry" />
        </mxCell>
        <mxCell id="rFOGEtQyIBQHR2Y3sHzz-89" value="id_user{id2}" style="text;strokeColor=none;fillColor=none;align=left;verticalAlign=middle;spacingLeft=4;spacingRight=4;overflow=hidden;points=[[0,0.5],[1,0.5]];portConstraint=eastwest;rotatable=0;whiteSpace=wrap;html=1;" vertex="1" parent="rFOGEtQyIBQHR2Y3sHzz-61">
          <mxGeometry y="120" width="140" height="30" as="geometry" />
        </mxCell>
        <mxCell id="rFOGEtQyIBQHR2Y3sHzz-69" value="" style="endArrow=none;html=1;rounded=0;entryX=-0.014;entryY=0.24;entryDx=0;entryDy=0;entryPerimeter=0;" edge="1" parent="1" target="rFOGEtQyIBQHR2Y3sHzz-63">
          <mxGeometry width="50" height="50" relative="1" as="geometry">
            <mxPoint x="180" y="1270" as="sourcePoint" />
            <mxPoint x="230" y="1220" as="targetPoint" />
          </mxGeometry>
        </mxCell>
        <mxCell id="rFOGEtQyIBQHR2Y3sHzz-70" value="n..n" style="edgeLabel;html=1;align=center;verticalAlign=middle;resizable=0;points=[];" vertex="1" connectable="0" parent="rFOGEtQyIBQHR2Y3sHzz-69">
          <mxGeometry x="0.8779" y="1" relative="1" as="geometry">
            <mxPoint y="-6" as="offset" />
          </mxGeometry>
        </mxCell>
        <mxCell id="rFOGEtQyIBQHR2Y3sHzz-71" value="1..1" style="edgeLabel;html=1;align=center;verticalAlign=middle;resizable=0;points=[];" vertex="1" connectable="0" parent="rFOGEtQyIBQHR2Y3sHzz-69">
          <mxGeometry x="-0.844" relative="1" as="geometry">
            <mxPoint y="-10" as="offset" />
          </mxGeometry>
        </mxCell>
        <mxCell id="rFOGEtQyIBQHR2Y3sHzz-72" value="Film_genere" style="swimlane;fontStyle=0;childLayout=stackLayout;horizontal=1;startSize=30;horizontalStack=0;resizeParent=1;resizeParentMax=0;resizeLast=0;collapsible=1;marginBottom=0;whiteSpace=wrap;html=1;" vertex="1" parent="1">
          <mxGeometry x="320" y="1450" width="140" height="120" as="geometry" />
        </mxCell>
        <mxCell id="rFOGEtQyIBQHR2Y3sHzz-73" value="id: serial {id1}" style="text;strokeColor=none;fillColor=none;align=left;verticalAlign=middle;spacingLeft=4;spacingRight=4;overflow=hidden;points=[[0,0.5],[1,0.5]];portConstraint=eastwest;rotatable=0;whiteSpace=wrap;html=1;" vertex="1" parent="rFOGEtQyIBQHR2Y3sHzz-72">
          <mxGeometry y="30" width="140" height="30" as="geometry" />
        </mxCell>
        <mxCell id="rFOGEtQyIBQHR2Y3sHzz-74" value="id_genere : fk int " style="text;strokeColor=none;fillColor=none;align=left;verticalAlign=middle;spacingLeft=4;spacingRight=4;overflow=hidden;points=[[0,0.5],[1,0.5]];portConstraint=eastwest;rotatable=0;whiteSpace=wrap;html=1;" vertex="1" parent="rFOGEtQyIBQHR2Y3sHzz-72">
          <mxGeometry y="60" width="140" height="30" as="geometry" />
        </mxCell>
        <mxCell id="rFOGEtQyIBQHR2Y3sHzz-75" value="id_film: fk int" style="text;strokeColor=none;fillColor=none;align=left;verticalAlign=middle;spacingLeft=4;spacingRight=4;overflow=hidden;points=[[0,0.5],[1,0.5]];portConstraint=eastwest;rotatable=0;whiteSpace=wrap;html=1;" vertex="1" parent="rFOGEtQyIBQHR2Y3sHzz-72">
          <mxGeometry y="90" width="140" height="30" as="geometry" />
        </mxCell>
        <mxCell id="rFOGEtQyIBQHR2Y3sHzz-80" value="" style="endArrow=none;html=1;rounded=0;entryX=0.717;entryY=0.976;entryDx=0;entryDy=0;entryPerimeter=0;exitX=0.579;exitY=-0.008;exitDx=0;exitDy=0;exitPerimeter=0;" edge="1" parent="1" source="rFOGEtQyIBQHR2Y3sHzz-72" target="rFOGEtQyIBQHR2Y3sHzz-89">
          <mxGeometry width="50" height="50" relative="1" as="geometry">
            <mxPoint x="380" y="1410" as="sourcePoint" />
            <mxPoint x="430" y="1360" as="targetPoint" />
          </mxGeometry>
        </mxCell>
        <mxCell id="rFOGEtQyIBQHR2Y3sHzz-81" value="1..1" style="edgeLabel;html=1;align=center;verticalAlign=middle;resizable=0;points=[];" vertex="1" connectable="0" parent="rFOGEtQyIBQHR2Y3sHzz-80">
          <mxGeometry x="-0.8246" y="-1" relative="1" as="geometry">
            <mxPoint as="offset" />
          </mxGeometry>
        </mxCell>
        <mxCell id="rFOGEtQyIBQHR2Y3sHzz-82" value="1..n" style="edgeLabel;html=1;align=center;verticalAlign=middle;resizable=0;points=[];" vertex="1" connectable="0" parent="rFOGEtQyIBQHR2Y3sHzz-80">
          <mxGeometry x="0.7693" y="1" relative="1" as="geometry">
            <mxPoint as="offset" />
          </mxGeometry>
        </mxCell>
        <mxCell id="rFOGEtQyIBQHR2Y3sHzz-90" value="Genere" style="swimlane;fontStyle=0;childLayout=stackLayout;horizontal=1;startSize=30;horizontalStack=0;resizeParent=1;resizeParentMax=0;resizeLast=0;collapsible=1;marginBottom=0;whiteSpace=wrap;html=1;" vertex="1" parent="1">
          <mxGeometry x="560" y="1450" width="140" height="90" as="geometry" />
        </mxCell>
        <mxCell id="rFOGEtQyIBQHR2Y3sHzz-91" value="id:serial{id1}" style="text;strokeColor=none;fillColor=none;align=left;verticalAlign=middle;spacingLeft=4;spacingRight=4;overflow=hidden;points=[[0,0.5],[1,0.5]];portConstraint=eastwest;rotatable=0;whiteSpace=wrap;html=1;" vertex="1" parent="rFOGEtQyIBQHR2Y3sHzz-90">
          <mxGeometry y="30" width="140" height="30" as="geometry" />
        </mxCell>
        <mxCell id="rFOGEtQyIBQHR2Y3sHzz-92" value="nome:Stringa" style="text;strokeColor=none;fillColor=none;align=left;verticalAlign=middle;spacingLeft=4;spacingRight=4;overflow=hidden;points=[[0,0.5],[1,0.5]];portConstraint=eastwest;rotatable=0;whiteSpace=wrap;html=1;" vertex="1" parent="rFOGEtQyIBQHR2Y3sHzz-90">
          <mxGeometry y="60" width="140" height="30" as="geometry" />
        </mxCell>
        <mxCell id="rFOGEtQyIBQHR2Y3sHzz-94" value="" style="endArrow=none;html=1;rounded=0;entryX=-0.021;entryY=0.662;entryDx=0;entryDy=0;entryPerimeter=0;" edge="1" parent="1" target="rFOGEtQyIBQHR2Y3sHzz-91">
          <mxGeometry width="50" height="50" relative="1" as="geometry">
            <mxPoint x="460" y="1500" as="sourcePoint" />
            <mxPoint x="510" y="1450" as="targetPoint" />
          </mxGeometry>
        </mxCell>
        <mxCell id="rFOGEtQyIBQHR2Y3sHzz-95" value="1" style="edgeLabel;html=1;align=center;verticalAlign=middle;resizable=0;points=[];" vertex="1" connectable="0" parent="rFOGEtQyIBQHR2Y3sHzz-94">
          <mxGeometry x="-0.8028" y="-2" relative="1" as="geometry">
            <mxPoint as="offset" />
          </mxGeometry>
        </mxCell>
        <mxCell id="rFOGEtQyIBQHR2Y3sHzz-96" value="n" style="edgeLabel;html=1;align=center;verticalAlign=middle;resizable=0;points=[];" vertex="1" connectable="0" parent="rFOGEtQyIBQHR2Y3sHzz-94">
          <mxGeometry x="0.7398" y="2" relative="1" as="geometry">
            <mxPoint as="offset" />
          </mxGeometry>
        </mxCell>
        <mxCell id="rFOGEtQyIBQHR2Y3sHzz-100" value="Attore_film" style="swimlane;fontStyle=0;childLayout=stackLayout;horizontal=1;startSize=30;horizontalStack=0;resizeParent=1;resizeParentMax=0;resizeLast=0;collapsible=1;marginBottom=0;whiteSpace=wrap;html=1;" vertex="1" parent="1">
          <mxGeometry x="490" y="1210" width="140" height="120" as="geometry" />
        </mxCell>
        <mxCell id="rFOGEtQyIBQHR2Y3sHzz-101" value="Item 1" style="text;strokeColor=none;fillColor=none;align=left;verticalAlign=middle;spacingLeft=4;spacingRight=4;overflow=hidden;points=[[0,0.5],[1,0.5]];portConstraint=eastwest;rotatable=0;whiteSpace=wrap;html=1;" vertex="1" parent="rFOGEtQyIBQHR2Y3sHzz-100">
          <mxGeometry y="30" width="140" height="30" as="geometry" />
        </mxCell>
        <mxCell id="rFOGEtQyIBQHR2Y3sHzz-102" value="Item 2" style="text;strokeColor=none;fillColor=none;align=left;verticalAlign=middle;spacingLeft=4;spacingRight=4;overflow=hidden;points=[[0,0.5],[1,0.5]];portConstraint=eastwest;rotatable=0;whiteSpace=wrap;html=1;" vertex="1" parent="rFOGEtQyIBQHR2Y3sHzz-100">
          <mxGeometry y="60" width="140" height="30" as="geometry" />
        </mxCell>
        <mxCell id="rFOGEtQyIBQHR2Y3sHzz-103" value="Item 3" style="text;strokeColor=none;fillColor=none;align=left;verticalAlign=middle;spacingLeft=4;spacingRight=4;overflow=hidden;points=[[0,0.5],[1,0.5]];portConstraint=eastwest;rotatable=0;whiteSpace=wrap;html=1;" vertex="1" parent="rFOGEtQyIBQHR2Y3sHzz-100">
          <mxGeometry y="90" width="140" height="30" as="geometry" />
        </mxCell>
        <mxCell id="rFOGEtQyIBQHR2Y3sHzz-104" value="Attore" style="swimlane;fontStyle=0;childLayout=stackLayout;horizontal=1;startSize=30;horizontalStack=0;resizeParent=1;resizeParentMax=0;resizeLast=0;collapsible=1;marginBottom=0;whiteSpace=wrap;html=1;" vertex="1" parent="1">
          <mxGeometry x="710" y="1230" width="140" height="120" as="geometry" />
        </mxCell>
        <mxCell id="rFOGEtQyIBQHR2Y3sHzz-105" value="Item 1" style="text;strokeColor=none;fillColor=none;align=left;verticalAlign=middle;spacingLeft=4;spacingRight=4;overflow=hidden;points=[[0,0.5],[1,0.5]];portConstraint=eastwest;rotatable=0;whiteSpace=wrap;html=1;" vertex="1" parent="rFOGEtQyIBQHR2Y3sHzz-104">
          <mxGeometry y="30" width="140" height="30" as="geometry" />
        </mxCell>
        <mxCell id="rFOGEtQyIBQHR2Y3sHzz-106" value="Item 2" style="text;strokeColor=none;fillColor=none;align=left;verticalAlign=middle;spacingLeft=4;spacingRight=4;overflow=hidden;points=[[0,0.5],[1,0.5]];portConstraint=eastwest;rotatable=0;whiteSpace=wrap;html=1;" vertex="1" parent="rFOGEtQyIBQHR2Y3sHzz-104">
          <mxGeometry y="60" width="140" height="30" as="geometry" />
        </mxCell>
        <mxCell id="rFOGEtQyIBQHR2Y3sHzz-107" value="Item 3" style="text;strokeColor=none;fillColor=none;align=left;verticalAlign=middle;spacingLeft=4;spacingRight=4;overflow=hidden;points=[[0,0.5],[1,0.5]];portConstraint=eastwest;rotatable=0;whiteSpace=wrap;html=1;" vertex="1" parent="rFOGEtQyIBQHR2Y3sHzz-104">
          <mxGeometry y="90" width="140" height="30" as="geometry" />
        </mxCell>
      </root>
    </mxGraphModel>
  </diagram>
</mxfile>
